<svg width="44" height="15" viewBox="0 0 44 15" fill="none" xmlns="http://www.w3.org/2000/svg">
<path d="M5.63396 5.59265V7.03295H9.10984C9.01756 7.82972 8.74072 8.44261 8.31008 8.84099C7.81792 9.33131 7.01816 9.88292 5.63396 9.88292C3.51153 9.88292 1.85049 8.16681 1.85049 6.05232C1.85049 3.93783 3.48077 2.22172 5.63396 2.22172C6.77208 2.22172 7.63336 2.68139 8.24856 3.26364L9.26363 2.25236C8.40236 1.42495 7.23348 0.78141 5.63396 0.78141C2.71177 0.78141 0.250977 3.14106 0.250977 6.05232C0.250977 8.96357 2.71177 11.3232 5.63396 11.3232C7.20272 11.3232 8.40236 10.8023 9.32516 9.85227C10.2787 8.90228 10.5863 7.55391 10.5863 6.48135C10.5863 6.14425 10.5556 5.8378 10.5248 5.59265H5.63396Z" fill="#4285F4"/>
<path d="M14.8929 4.39749C13.0165 4.39749 11.4478 5.8378 11.4478 7.79906C11.4478 9.76033 12.9857 11.2006 14.8929 11.2006C16.8 11.2006 18.338 9.79098 18.338 7.82971C18.338 5.8378 16.8 4.39749 14.8929 4.39749ZM14.8929 9.88291C13.847 9.88291 12.955 9.02486 12.955 7.82971C12.955 6.60392 13.847 5.77651 14.8929 5.77651C15.9387 5.77651 16.8307 6.60392 16.8307 7.82971C16.8307 9.02486 15.9387 9.88291 14.8929 9.88291Z" fill="#EA4335"/>
<path d="M31.7185 5.16361H31.6569C31.3186 4.76523 30.6726 4.39749 29.8421 4.39749C28.1195 4.39749 26.6431 5.86844 26.6431 7.79906C26.6431 9.69904 28.1195 11.2006 29.8421 11.2006C30.6726 11.2006 31.3186 10.8329 31.6569 10.4345H31.7185V10.9248C31.7185 12.2119 31.011 12.9167 29.9036 12.9167C28.9808 12.9167 28.4271 12.2732 28.1811 11.691L26.8891 12.2426C27.2583 13.1313 28.2733 14.2651 29.9344 14.2651C31.6877 14.2651 33.1949 13.2232 33.1949 10.7103V4.58136H31.78V5.16361H31.7185ZM29.9959 9.88291C28.9501 9.88291 28.1811 8.99421 28.1811 7.82971C28.1811 6.63456 28.9808 5.77651 29.9959 5.77651C31.011 5.77651 31.8107 6.66521 31.8107 7.86035C31.8415 9.02486 31.0417 9.88291 29.9959 9.88291Z" fill="#4285F4"/>
<path d="M22.552 4.39749C20.6757 4.39749 19.1069 5.8378 19.1069 7.79906C19.1069 9.76033 20.6449 11.2006 22.552 11.2006C24.4592 11.2006 25.9972 9.79098 25.9972 7.82971C25.9972 5.8378 24.4592 4.39749 22.552 4.39749ZM22.552 9.88291C21.5062 9.88291 20.6142 9.02486 20.6142 7.82971C20.6142 6.60392 21.5062 5.77651 22.552 5.77651C23.5979 5.77651 24.4899 6.60392 24.4899 7.82971C24.4899 9.02486 23.5979 9.88291 22.552 9.88291Z" fill="#FBBC05"/>
<path d="M34.333 0.934624H35.8095V11.2313H34.333V0.934624Z" fill="#34A853"/>
<path d="M40.3621 9.88291C39.5931 9.88291 39.0702 9.54582 38.7011 8.84099L43.2843 6.97166L43.1305 6.57327C42.8537 5.80715 41.9616 4.39749 40.2083 4.39749C38.455 4.39749 36.9785 5.77651 36.9785 7.79906C36.9785 9.69904 38.4242 11.2006 40.3621 11.2006C41.9309 11.2006 42.8229 10.2506 43.2228 9.69904L42.0539 8.93292C41.654 9.51517 41.1311 9.88291 40.3621 9.88291ZM40.2698 5.68457C40.885 5.68457 41.4079 5.99102 41.5617 6.42005L38.4858 7.70713C38.455 6.29747 39.5008 5.68457 40.2698 5.68457Z" fill="#EA4335"/>
</svg>
