<svg width="67" height="14" viewBox="0 0 67 14" fill="none" xmlns="http://www.w3.org/2000/svg">
<path d="M2.84288 8.88939C2.84288 9.65332 3.01056 10.2398 3.22972 10.5947C3.51706 11.0594 3.94564 11.2563 4.38257 11.2563C4.94613 11.2563 5.46168 11.1165 6.45521 9.74238C7.25115 8.64101 8.18902 7.09505 8.82006 6.12587L9.88873 4.48391C10.6311 3.34357 11.4903 2.07592 12.4755 1.21667C13.2798 0.515352 14.1474 0.125732 15.0206 0.125732C16.4865 0.125732 17.8829 0.975242 18.9516 2.56851C20.1211 4.31345 20.6888 6.51132 20.6888 8.77946C20.6888 10.1278 20.4231 11.1186 19.9708 11.9013C19.5339 12.6583 18.6823 13.4145 17.2498 13.4145V11.2563C18.4764 11.2563 18.7825 10.1292 18.7825 8.8393C18.7825 7.00113 18.3539 4.96119 17.4098 3.50359C16.7398 2.46971 15.8715 1.83797 14.9162 1.83797C13.883 1.83797 13.0516 2.61721 12.1172 4.00662C11.6205 4.74481 11.1105 5.64442 10.5379 6.65951L9.90752 7.77619C8.64126 10.0214 8.32052 10.5328 7.68738 11.3767C6.57766 12.8545 5.63005 13.4145 4.38257 13.4145C2.90272 13.4145 1.96693 12.7738 1.38737 11.8081C0.914265 11.0212 0.681885 9.98867 0.681885 8.81216L2.84288 8.88939Z" fill="#0081FB"/>
<path d="M2.38574 2.72085C3.37649 1.19368 4.80625 0.125702 6.44613 0.125702C7.39583 0.125702 8.33996 0.406785 9.32584 1.21177C10.4043 2.09189 11.5536 3.54113 12.9876 5.92964L13.5017 6.7868C14.7429 8.85457 15.4491 9.91837 15.8624 10.42C16.394 11.0643 16.7662 11.2563 17.2497 11.2563C18.4763 11.2563 18.7825 10.1292 18.7825 8.83926L20.6888 8.77943C20.6888 10.1278 20.423 11.1185 19.9708 11.9013C19.5339 12.6582 18.6823 13.4145 17.2497 13.4145C16.3592 13.4145 15.5702 13.2211 14.6977 12.398C14.027 11.7663 13.2429 10.644 12.6397 9.6352L10.8454 6.63791C9.94506 5.1337 9.1192 4.01216 8.64122 3.50426C8.12706 2.9581 7.4661 2.29853 6.41135 2.29853C5.55766 2.29853 4.83269 2.89757 4.226 3.81387L2.38574 2.72085Z" fill="url(#paint0_linear_68_3777)"/>
<path d="M6.41138 2.29856C5.5577 2.29856 4.83272 2.8976 4.22603 3.8139C3.36817 5.10869 2.84288 7.0373 2.84288 8.88939C2.84288 9.65332 3.01056 10.2398 3.22972 10.5947L1.38737 11.8081C0.914265 11.0212 0.681885 9.98867 0.681885 8.81216C0.681885 6.67273 1.2691 4.44286 2.38577 2.72088C3.37652 1.19371 4.80629 0.125732 6.44617 0.125732L6.41138 2.29856Z" fill="url(#paint1_linear_68_3777)"/>
<path d="M24.8898 0.545898H27.3896L31.6399 8.23532L35.891 0.545898H38.3365V13.1807H36.2973V3.49727L32.5695 10.2029H30.6561L26.929 3.49727V13.1807H24.8898V0.545898ZM44.7263 5.25682C43.2638 5.25682 42.383 6.35749 42.1722 7.72046H47.1357C47.0334 6.31644 46.2235 5.25682 44.7263 5.25682ZM40.1503 8.49692C40.1503 5.62904 42.0038 3.54179 44.7618 3.54179C47.4745 3.54179 49.0942 5.6026 49.0942 8.64998V9.21006H42.1722C42.4178 10.6927 43.4016 11.6918 44.9879 11.6918C46.2534 11.6918 47.0445 11.3057 47.7945 10.5995L48.8778 11.9263C47.8571 12.8648 46.5589 13.4061 44.9155 13.4061C41.9301 13.4061 40.1503 11.2291 40.1503 8.49692ZM51.5669 5.43771H49.6898V3.76791H51.5669V1.00648H53.5345V3.76791H56.3863V5.43771H53.5345V9.66995C53.5345 11.115 53.9964 11.6285 55.1319 11.6285C55.6502 11.6285 55.9473 11.584 56.3863 11.5109V13.1626C55.8395 13.3171 55.3177 13.388 54.7527 13.388C52.6286 13.388 51.5669 12.2275 51.5669 9.90442V5.43771ZM64.6713 7.06159C64.2761 6.06389 63.3946 5.32917 62.0991 5.32917C60.4154 5.32917 59.3377 6.52378 59.3377 8.46979C59.3377 10.3671 60.3298 11.6194 62.0184 11.6194C63.3459 11.6194 64.2935 10.8472 64.6713 9.88633V7.06159ZM66.6389 13.1807H64.7075V11.863C64.1676 12.6387 63.1852 13.4061 61.594 13.4061C59.0351 13.4061 57.3249 11.2639 57.3249 8.46979C57.3249 5.64922 59.0761 3.54179 61.7026 3.54179C63.0008 3.54179 64.0194 4.06082 64.7075 4.97713V3.76791H66.6389V13.1807Z" fill="white"/>
<defs>
<linearGradient id="paint0_linear_68_3777" x1="4.92592" y1="8.26597" x2="18.7018" y2="8.96172" gradientUnits="userSpaceOnUse">
<stop stop-color="#0064E1"/>
<stop offset="0.4" stop-color="#0064E1"/>
<stop offset="0.83" stop-color="#0073EE"/>
<stop offset="1" stop-color="#0082FB"/>
</linearGradient>
<linearGradient id="paint1_linear_68_3777" x1="3.81276" y1="9.79665" x2="3.81276" y2="4.71768" gradientUnits="userSpaceOnUse">
<stop stop-color="#0082FB"/>
<stop offset="1" stop-color="#0064E0"/>
</linearGradient>
</defs>
</svg>
